<?xml version="1.0" encoding="UTF-8"?><svg xmlns="http://www.w3.org/2000/svg" xmlns:xlink="http://www.w3.org/1999/xlink" height="804pt" style="width:1671px;height:804px;" version="1.1" viewBox="0 0 1671 804" width="1671pt">
    <defs>
        <filter height="300%" id="f1" width="300%" x="-1" y="-1">
            <feGaussianBlur result="blurOut" stdDeviation="2.0"/>
            <feColorMatrix in="blurOut" result="blurOut2" type="matrix" values="0 0 0 0 0 0 0 0 0 0 0 0 0 0 0 0 0 0 .4 0"/>
            <feOffset dx="4.0" dy="4.0" in="blurOut2" result="blurOut3"/>
            <feBlend in="SourceGraphic" in2="blurOut3" mode="normal"/>
        </filter>
    </defs>
    <g>
        <polygon fill="#FFFFFF" filter="url(#f1)" points="743,16,788,16,795,39.6094,1257,39.6094,1257,634,743,634,743,16" style="stroke: #000000; stroke-width: 2.0;"/>
        <line style="stroke: #000000; stroke-width: 2.0;" x1="743" x2="795" y1="39.6094" y2="39.6094"/>
        <text fill="#000000" font-family="sans-serif" font-size="14" font-weight="bold" lengthAdjust="spacingAndGlyphs" textLength="39" x="746" y="33.5332">client</text>
        <polygon fill="#FFFFFF" filter="url(#f1)" points="14,418.5,79,418.5,86,442.1094,735,442.1094,735,797,14,797,14,418.5" style="stroke: #000000; stroke-width: 2.0;"/>
        <line style="stroke: #000000; stroke-width: 2.0;" x1="14" x2="86" y1="442.1094" y2="442.1094"/>
        <text fill="#000000" font-family="sans-serif" font-size="14" font-weight="bold" lengthAdjust="spacingAndGlyphs" textLength="59" x="17" y="436.0332">IHMAuto</text>
        <polygon fill="#FFFFFF" filter="url(#f1)" points="1446,29.5,1499,29.5,1506,53.1094,1664,53.1094,1664,564.5,1446,564.5,1446,29.5" style="stroke: #000000; stroke-width: 2.0;"/>
        <line style="stroke: #000000; stroke-width: 2.0;" x1="1446" x2="1506" y1="53.1094" y2="53.1094"/>
        <text fill="#000000" font-family="sans-serif" font-size="14" font-weight="bold" lengthAdjust="spacingAndGlyphs" textLength="47" x="1449" y="47.0332">server</text>
        <rect fill="#FEFECE" filter="url(#f1)" height="61.8359" style="stroke: #A80036; stroke-width: 1.5;" width="172" x="1077" y="64.5"/>
        <ellipse cx="1123.25" cy="80.5" fill="#B4A7E5" rx="11" ry="11" style="stroke: #A80036; stroke-width: 1.0;"/>
        <path d="M1124.2031,77.1406 L1124.2031,83.7969 L1125.9219,83.7969 Q1126.5313,83.7969 1126.7969,84.0313 Q1127.0625,84.2656 1127.0625,84.6563 Q1127.0625,85.0313 1126.7969,85.2656 Q1126.5313,85.5 1125.9219,85.5 L1120.7813,85.5 Q1120.1719,85.5 1119.9063,85.2656 Q1119.6406,85.0313 1119.6406,84.6406 Q1119.6406,84.2656 1119.9063,84.0313 Q1120.1719,83.7969 1120.7813,83.7969 L1122.5,83.7969 L1122.5,77.1406 L1120.7813,77.1406 Q1120.1719,77.1406 1119.9063,76.9063 Q1119.6406,76.6719 1119.6406,76.2813 Q1119.6406,75.9063 1119.9063,75.6719 Q1120.1719,75.4375 1120.7813,75.4375 L1125.9219,75.4375 Q1126.5313,75.4375 1126.7969,75.6719 Q1127.0625,75.9063 1127.0625,76.2813 Q1127.0625,76.6719 1126.7969,76.9063 Q1126.5313,77.1406 1125.9219,77.1406 L1124.2031,77.1406 Z "/>
        <text fill="#000000" font-family="sans-serif" font-size="12" font-style="italic" lengthAdjust="spacingAndGlyphs" textLength="71" x="1143.75" y="85.4102">ComListener</text>
        <line style="stroke: #A80036; stroke-width: 1.5;" x1="1078" x2="1248" y1="96.5" y2="96.5"/>
        <line style="stroke: #A80036; stroke-width: 1.5;" x1="1078" x2="1248" y1="104.5" y2="104.5"/>
        <polygon fill="#FFFF44" points="1088,111.918,1092,115.918,1088,119.918,1084,115.918" style="stroke: #B38D22; stroke-width: 1.0;"/>
        <text fill="#000000" font-family="sans-serif" font-size="11" lengthAdjust="spacingAndGlyphs" textLength="146" x="1097" y="119.9189">void onTrameReceived(String)</text>
        <rect fill="#FEFECE" filter="url(#f1)" height="75.6719" style="stroke: #A80036; stroke-width: 1.5;" width="162" x="880" y="57.5"/>
        <ellipse cx="921.1" cy="73.5" fill="#B4A7E5" rx="11" ry="11" style="stroke: #A80036; stroke-width: 1.0;"/>
        <path d="M922.0531,70.1406 L922.0531,76.7969 L923.7719,76.7969 Q924.3813,76.7969 924.6469,77.0313 Q924.9125,77.2656 924.9125,77.6563 Q924.9125,78.0313 924.6469,78.2656 Q924.3813,78.5 923.7719,78.5 L918.6313,78.5 Q918.0219,78.5 917.7563,78.2656 Q917.4906,78.0313 917.4906,77.6406 Q917.4906,77.2656 917.7563,77.0313 Q918.0219,76.7969 918.6313,76.7969 L920.35,76.7969 L920.35,70.1406 L918.6313,70.1406 Q918.0219,70.1406 917.7563,69.9063 Q917.4906,69.6719 917.4906,69.2813 Q917.4906,68.9063 917.7563,68.6719 Q918.0219,68.4375 918.6313,68.4375 L923.7719,68.4375 Q924.3813,68.4375 924.6469,68.6719 Q924.9125,68.9063 924.9125,69.2813 Q924.9125,69.6719 924.6469,69.9063 Q924.3813,70.1406 923.7719,70.1406 L922.0531,70.1406 Z "/>
        <text fill="#000000" font-family="sans-serif" font-size="12" font-style="italic" lengthAdjust="spacingAndGlyphs" textLength="72" x="940.9" y="78.4102">StateListener</text>
        <line style="stroke: #A80036; stroke-width: 1.5;" x1="881" x2="1041" y1="89.5" y2="89.5"/>
        <ellipse cx="891" cy="101.918" fill="none" rx="3" ry="3" style="stroke: #038048; stroke-width: 1.0;"/>
        <text fill="#000000" font-family="sans-serif" font-size="11" lengthAdjust="spacingAndGlyphs" textLength="60" x="900" y="104.9189">State : enum</text>
        <line style="stroke: #A80036; stroke-width: 1.5;" x1="881" x2="1041" y1="111.3359" y2="111.3359"/>
        <ellipse cx="891" cy="123.7539" fill="#84BE84" rx="3" ry="3" style="stroke: #038048; stroke-width: 1.0;"/>
        <text fill="#000000" font-family="sans-serif" font-size="11" lengthAdjust="spacingAndGlyphs" textLength="136" x="900" y="126.7549">void onStateChanged(State)</text>
        <rect fill="#FEFECE" filter="url(#f1)" height="103.3438" style="stroke: #A80036; stroke-width: 1.5;" width="93" x="751.5" y="44"/>
        <ellipse cx="781.35" cy="60" fill="#EB937F" rx="11" ry="11" style="stroke: #A80036; stroke-width: 1.0;"/>
        <path d="M780.2094,60.7969 L780.2094,63.2969 L784.5375,63.2969 L784.5375,62.375 Q784.5375,61.7656 784.7797,61.5 Q785.0219,61.2344 785.3969,61.2344 Q785.7719,61.2344 786.0063,61.5 Q786.2406,61.7656 786.2406,62.375 L786.2406,65 L778.2406,65 Q777.6156,65 777.3578,64.7656 Q777.1,64.5313 777.1,64.1406 Q777.1,63.7656 777.3656,63.5313 Q777.6313,63.2969 778.2406,63.2969 L778.5063,63.2969 L778.5063,56.6406 L778.2406,56.6406 Q777.6156,56.6406 777.3578,56.4063 Q777.1,56.1719 777.1,55.7813 Q777.1,55.4063 777.3578,55.1719 Q777.6156,54.9375 778.2406,54.9375 L785.8656,54.9375 L785.8656,57.5313 Q785.8656,58.1406 785.6391,58.3984 Q785.4125,58.6563 785.0219,58.6563 Q784.6469,58.6563 784.4125,58.3984 Q784.1781,58.1406 784.1781,57.5313 L784.1781,56.6406 L780.2094,56.6406 L780.2094,59.0938 L781.6938,59.0938 Q781.6938,58.4375 781.8188,58.25 Q782.0844,57.8438 782.5531,57.8438 Q782.9281,57.8438 783.1625,58.1016 Q783.3969,58.3594 783.3969,58.9688 L783.3969,60.9375 Q783.3969,61.4844 783.2719,61.6719 Q783.0063,62.0625 782.5531,62.0625 Q782.0844,62.0625 781.8188,61.6563 Q781.6938,61.4688 781.6938,60.7969 L780.2094,60.7969 Z "/>
        <text fill="#000000" font-family="sans-serif" font-size="12" lengthAdjust="spacingAndGlyphs" textLength="28" x="798.65" y="64.9102">State</text>
        <line style="stroke: #A80036; stroke-width: 1.5;" x1="752.5" x2="843.5" y1="76" y2="76"/>
        <text fill="#000000" font-family="sans-serif" font-size="11" lengthAdjust="spacingAndGlyphs" textLength="33" x="757.5" y="91.4189">INITIAL</text>
        <text fill="#000000" font-family="sans-serif" font-size="11" lengthAdjust="spacingAndGlyphs" textLength="65" x="757.5" y="105.2549">CONNECTING</text>
        <text fill="#000000" font-family="sans-serif" font-size="11" lengthAdjust="spacingAndGlyphs" textLength="61" x="757.5" y="119.0908">CONNECTED</text>
        <text fill="#000000" font-family="sans-serif" font-size="11" lengthAdjust="spacingAndGlyphs" textLength="81" x="757.5" y="132.9268">DISCONNECTING</text>
        <line style="stroke: #A80036; stroke-width: 1.5;" x1="752.5" x2="843.5" y1="139.3438" y2="139.3438"/>
        <rect fill="#FEFECE" filter="url(#f1)" height="103.3438" style="stroke: #A80036; stroke-width: 1.5;" width="219" x="751.5" y="207"/>
        <ellipse cx="840.75" cy="223" fill="#ADD1B2" rx="11" ry="11" style="stroke: #A80036; stroke-width: 1.0;"/>
        <path d="M843.5156,218.875 Q843.6719,218.6563 843.8594,218.5469 Q844.0469,218.4375 844.2656,218.4375 Q844.6406,218.4375 844.875,218.6953 Q845.1094,218.9531 845.1094,219.5625 L845.1094,221.0156 Q845.1094,221.625 844.875,221.8906 Q844.6406,222.1563 844.2656,222.1563 Q843.9219,222.1563 843.7188,221.9531 Q843.5156,221.7656 843.4063,221.25 Q843.3594,220.8906 843.1719,220.7031 Q842.8438,220.3281 842.2344,220.1094 Q841.625,219.8906 841,219.8906 Q840.2344,219.8906 839.6016,220.2188 Q838.9688,220.5469 838.4766,221.2969 Q837.9844,222.0469 837.9844,223.0781 L837.9844,224.1719 Q837.9844,225.4063 838.875,226.2266 Q839.7656,227.0469 841.3594,227.0469 Q842.2969,227.0469 842.9531,226.7969 Q843.3438,226.6406 843.7656,226.2031 Q844.0313,225.9375 844.1797,225.8594 Q844.3281,225.7813 844.5313,225.7813 Q844.8594,225.7813 845.1172,226.0391 Q845.375,226.2969 845.375,226.6406 Q845.375,226.9844 845.0313,227.3906 Q844.5313,227.9688 843.7344,228.2969 Q842.6563,228.75 841.3594,228.75 Q839.8438,228.75 838.6406,228.125 Q837.6563,227.625 836.9688,226.5547 Q836.2813,225.4844 836.2813,224.2031 L836.2813,223.0469 Q836.2813,221.7188 836.8984,220.5703 Q837.5156,219.4219 838.6094,218.8047 Q839.7031,218.1875 840.9375,218.1875 Q841.6719,218.1875 842.3203,218.3516 Q842.9688,218.5156 843.5156,218.875 Z "/>
        <text fill="#000000" font-family="sans-serif" font-size="12" lengthAdjust="spacingAndGlyphs" textLength="32" x="861.25" y="227.9102">Client</text>
        <line style="stroke: #A80036; stroke-width: 1.5;" x1="752.5" x2="969.5" y1="239" y2="239"/>
        <rect fill="none" height="6" style="stroke: #C82930; stroke-width: 1.0;" width="6" x="759.5" y="248.418"/>
        <text fill="#000000" font-family="sans-serif" font-size="11" lengthAdjust="spacingAndGlyphs" textLength="152" x="771.5" y="254.4189">m_com : CommunicationHandler</text>
        <rect fill="none" height="6" style="stroke: #C82930; stroke-width: 1.0;" width="6" x="759.5" y="262.2539"/>
        <text fill="#000000" font-family="sans-serif" font-size="11" lengthAdjust="spacingAndGlyphs" textLength="87" x="771.5" y="268.2549">m_pseudo : String</text>
        <rect fill="none" height="6" style="stroke: #C82930; stroke-width: 1.0;" width="6" x="759.5" y="276.0898"/>
        <text fill="#000000" font-family="sans-serif" font-size="11" lengthAdjust="spacingAndGlyphs" textLength="193" x="771.5" y="282.0908">m_connectWindow : ConnexionWindow</text>
        <rect fill="none" height="6" style="stroke: #C82930; stroke-width: 1.0;" width="6" x="759.5" y="289.9258"/>
        <text fill="#000000" font-family="sans-serif" font-size="11" lengthAdjust="spacingAndGlyphs" textLength="172" x="771.5" y="295.9268">m_chatWindow : ChatClientWindow</text>
        <line style="stroke: #A80036; stroke-width: 1.5;" x1="752.5" x2="969.5" y1="302.3438" y2="302.3438"/>
        <rect fill="#FEFECE" filter="url(#f1)" height="255.5391" style="stroke: #A80036; stroke-width: 1.5;" width="239" x="1009.5" y="370"/>
        <ellipse cx="1058.75" cy="386" fill="#ADD1B2" rx="11" ry="11" style="stroke: #A80036; stroke-width: 1.0;"/>
        <path d="M1061.5156,381.875 Q1061.6719,381.6563 1061.8594,381.5469 Q1062.0469,381.4375 1062.2656,381.4375 Q1062.6406,381.4375 1062.875,381.6953 Q1063.1094,381.9531 1063.1094,382.5625 L1063.1094,384.0156 Q1063.1094,384.625 1062.875,384.8906 Q1062.6406,385.1563 1062.2656,385.1563 Q1061.9219,385.1563 1061.7188,384.9531 Q1061.5156,384.7656 1061.4063,384.25 Q1061.3594,383.8906 1061.1719,383.7031 Q1060.8438,383.3281 1060.2344,383.1094 Q1059.625,382.8906 1059,382.8906 Q1058.2344,382.8906 1057.6016,383.2188 Q1056.9688,383.5469 1056.4766,384.2969 Q1055.9844,385.0469 1055.9844,386.0781 L1055.9844,387.1719 Q1055.9844,388.4063 1056.875,389.2266 Q1057.7656,390.0469 1059.3594,390.0469 Q1060.2969,390.0469 1060.9531,389.7969 Q1061.3438,389.6406 1061.7656,389.2031 Q1062.0313,388.9375 1062.1797,388.8594 Q1062.3281,388.7813 1062.5313,388.7813 Q1062.8594,388.7813 1063.1172,389.0391 Q1063.375,389.2969 1063.375,389.6406 Q1063.375,389.9844 1063.0313,390.3906 Q1062.5313,390.9688 1061.7344,391.2969 Q1060.6563,391.75 1059.3594,391.75 Q1057.8438,391.75 1056.6406,391.125 Q1055.6563,390.625 1054.9688,389.5547 Q1054.2813,388.4844 1054.2813,387.2031 L1054.2813,386.0469 Q1054.2813,384.7188 1054.8984,383.5703 Q1055.5156,382.4219 1056.6094,381.8047 Q1057.7031,381.1875 1058.9375,381.1875 Q1059.6719,381.1875 1060.3203,381.3516 Q1060.9688,381.5156 1061.5156,381.875 Z "/>
        <text fill="#000000" font-family="sans-serif" font-size="12" lengthAdjust="spacingAndGlyphs" textLength="132" x="1079.25" y="390.9102">CommunicationHandler</text>
        <line style="stroke: #A80036; stroke-width: 1.5;" x1="1010.5" x2="1247.5" y1="402" y2="402"/>
        <ellipse cx="1020.5" cy="414.418" fill="none" rx="3" ry="3" style="stroke: #038048; stroke-width: 1.0;"/>
        <text fill="#000000" font-family="sans-serif" font-size="11" lengthAdjust="spacingAndGlyphs" text-decoration="underline" textLength="86" x="1029.5" y="417.4189">TIMEOUT : final int</text>
        <line style="stroke: #000000; stroke-width: 1.0;" x1="1029.5" x2="1115.5" y1="419.4189" y2="419.4189"/>
        <rect fill="none" height="6" style="stroke: #C82930; stroke-width: 1.0;" width="6" x="1017.5" y="425.2539"/>
        <text fill="#000000" font-family="sans-serif" font-size="11" lengthAdjust="spacingAndGlyphs" textLength="79" x="1029.5" y="431.2549">m_sock : Socket</text>
        <rect fill="none" height="6" style="stroke: #C82930; stroke-width: 1.0;" width="6" x="1017.5" y="439.0898"/>
        <text fill="#000000" font-family="sans-serif" font-size="11" lengthAdjust="spacingAndGlyphs" textLength="139" x="1029.5" y="445.0908">m_state : StateListener.State</text>
        <rect fill="none" height="6" style="stroke: #C82930; stroke-width: 1.0;" width="6" x="1017.5" y="452.9258"/>
        <text fill="#000000" font-family="sans-serif" font-size="11" lengthAdjust="spacingAndGlyphs" textLength="213" x="1029.5" y="458.9268">m_stateListeners : ArrayList&lt;StateListener&gt;</text>
        <rect fill="none" height="6" style="stroke: #C82930; stroke-width: 1.0;" width="6" x="1017.5" y="466.7617"/>
        <text fill="#000000" font-family="sans-serif" font-size="11" lengthAdjust="spacingAndGlyphs" textLength="205" x="1029.5" y="472.7627">m_comListeners : ArrayList&lt;ComListener&gt;</text>
        <rect fill="none" height="6" style="stroke: #C82930; stroke-width: 1.0;" width="6" x="1017.5" y="480.5977"/>
        <text fill="#000000" font-family="sans-serif" font-size="11" lengthAdjust="spacingAndGlyphs" textLength="78" x="1029.5" y="486.5986">m_quit : boolean</text>
        <line style="stroke: #A80036; stroke-width: 1.5;" x1="1010.5" x2="1247.5" y1="493.0156" y2="493.0156"/>
        <ellipse cx="1020.5" cy="505.4336" fill="#84BE84" rx="3" ry="3" style="stroke: #038048; stroke-width: 1.0;"/>
        <text fill="#000000" font-family="sans-serif" font-size="11" lengthAdjust="spacingAndGlyphs" textLength="52" x="1029.5" y="508.4346">void stop()</text>
        <rect fill="#F24D5C" height="6" style="stroke: #C82930; stroke-width: 1.0;" width="6" x="1017.5" y="516.2695"/>
        <text fill="#000000" font-family="sans-serif" font-size="11" lengthAdjust="spacingAndGlyphs" textLength="184" x="1029.5" y="522.2705">void changeState(StateListener.State)</text>
        <ellipse cx="1020.5" cy="533.1055" fill="#84BE84" rx="3" ry="3" style="stroke: #038048; stroke-width: 1.0;"/>
        <text fill="#000000" font-family="sans-serif" font-size="11" lengthAdjust="spacingAndGlyphs" textLength="143" x="1029.5" y="536.1064">StateListener.State getState()</text>
        <ellipse cx="1020.5" cy="546.9414" fill="#84BE84" rx="3" ry="3" style="stroke: #038048; stroke-width: 1.0;"/>
        <text fill="#000000" font-family="sans-serif" font-size="11" lengthAdjust="spacingAndGlyphs" textLength="117" x="1029.5" y="549.9424">CommunicationHandler()</text>
        <ellipse cx="1020.5" cy="560.7773" fill="#84BE84" rx="3" ry="3" style="stroke: #038048; stroke-width: 1.0;"/>
        <text fill="#000000" font-family="sans-serif" font-size="11" lengthAdjust="spacingAndGlyphs" textLength="154" x="1029.5" y="563.7783">addStateListener(StateListener)</text>
        <ellipse cx="1020.5" cy="574.6133" fill="#84BE84" rx="3" ry="3" style="stroke: #038048; stroke-width: 1.0;"/>
        <text fill="#000000" font-family="sans-serif" font-size="11" lengthAdjust="spacingAndGlyphs" textLength="146" x="1029.5" y="577.6143">addComListener(ComListener)</text>
        <ellipse cx="1020.5" cy="588.4492" fill="#84BE84" rx="3" ry="3" style="stroke: #038048; stroke-width: 1.0;"/>
        <text fill="#000000" font-family="sans-serif" font-size="11" lengthAdjust="spacingAndGlyphs" textLength="122" x="1029.5" y="591.4502">void configure(String, int)</text>
        <ellipse cx="1020.5" cy="602.2852" fill="#84BE84" rx="3" ry="3" style="stroke: #038048; stroke-width: 1.0;"/>
        <text fill="#000000" font-family="sans-serif" font-size="11" lengthAdjust="spacingAndGlyphs" textLength="84" x="1029.5" y="605.2861">void disconnect()</text>
        <ellipse cx="1020.5" cy="616.1211" fill="#84BE84" rx="3" ry="3" style="stroke: #038048; stroke-width: 1.0;"/>
        <text fill="#000000" font-family="sans-serif" font-size="11" lengthAdjust="spacingAndGlyphs" textLength="80" x="1029.5" y="619.1221">void post(String)</text>
        <rect fill="#FEFECE" filter="url(#f1)" height="103.3438" style="stroke: #A80036; stroke-width: 1.5;" width="153" x="329.5" y="686"/>
        <ellipse cx="367.45" cy="702" fill="#B4A7E5" rx="11" ry="11" style="stroke: #A80036; stroke-width: 1.0;"/>
        <path d="M368.4031,698.6406 L368.4031,705.2969 L370.1219,705.2969 Q370.7313,705.2969 370.9969,705.5313 Q371.2625,705.7656 371.2625,706.1563 Q371.2625,706.5313 370.9969,706.7656 Q370.7313,707 370.1219,707 L364.9813,707 Q364.3719,707 364.1063,706.7656 Q363.8406,706.5313 363.8406,706.1406 Q363.8406,705.7656 364.1063,705.5313 Q364.3719,705.2969 364.9813,705.2969 L366.7,705.2969 L366.7,698.6406 L364.9813,698.6406 Q364.3719,698.6406 364.1063,698.4063 Q363.8406,698.1719 363.8406,697.7813 Q363.8406,697.4063 364.1063,697.1719 Q364.3719,696.9375 364.9813,696.9375 L370.1219,696.9375 Q370.7313,696.9375 370.9969,697.1719 Q371.2625,697.4063 371.2625,697.7813 Q371.2625,698.1719 370.9969,698.4063 Q370.7313,698.6406 370.1219,698.6406 L368.4031,698.6406 Z "/>
        <text fill="#000000" font-family="sans-serif" font-size="12" font-style="italic" lengthAdjust="spacingAndGlyphs" textLength="70" x="386.55" y="706.9102">ChatListener</text>
        <line style="stroke: #A80036; stroke-width: 1.5;" x1="330.5" x2="481.5" y1="718" y2="718"/>
        <line style="stroke: #A80036; stroke-width: 1.5;" x1="330.5" x2="481.5" y1="726" y2="726"/>
        <ellipse cx="340.5" cy="738.418" fill="#84BE84" rx="3" ry="3" style="stroke: #038048; stroke-width: 1.0;"/>
        <text fill="#000000" font-family="sans-serif" font-size="11" lengthAdjust="spacingAndGlyphs" textLength="114" x="349.5" y="741.4189">void askDeconnection()</text>
        <ellipse cx="340.5" cy="752.2539" fill="#84BE84" rx="3" ry="3" style="stroke: #038048; stroke-width: 1.0;"/>
        <text fill="#000000" font-family="sans-serif" font-size="11" lengthAdjust="spacingAndGlyphs" textLength="102" x="349.5" y="755.2549">void askInitialization()</text>
        <ellipse cx="340.5" cy="766.0898" fill="#84BE84" rx="3" ry="3" style="stroke: #038048; stroke-width: 1.0;"/>
        <text fill="#000000" font-family="sans-serif" font-size="11" lengthAdjust="spacingAndGlyphs" textLength="127" x="349.5" y="769.0908">void sendMessage(String)</text>
        <ellipse cx="340.5" cy="779.9258" fill="#84BE84" rx="3" ry="3" style="stroke: #038048; stroke-width: 1.0;"/>
        <text fill="#000000" font-family="sans-serif" font-size="11" lengthAdjust="spacingAndGlyphs" textLength="116" x="349.5" y="782.9268">void StatusChanged(int)</text>
        <rect fill="#FEFECE" filter="url(#f1)" height="61.8359" style="stroke: #A80036; stroke-width: 1.5;" width="209" x="517.5" y="706.5"/>
        <ellipse cx="562.25" cy="722.5" fill="#B4A7E5" rx="11" ry="11" style="stroke: #A80036; stroke-width: 1.0;"/>
        <path d="M563.2031,719.1406 L563.2031,725.7969 L564.9219,725.7969 Q565.5313,725.7969 565.7969,726.0313 Q566.0625,726.2656 566.0625,726.6563 Q566.0625,727.0313 565.7969,727.2656 Q565.5313,727.5 564.9219,727.5 L559.7813,727.5 Q559.1719,727.5 558.9063,727.2656 Q558.6406,727.0313 558.6406,726.6406 Q558.6406,726.2656 558.9063,726.0313 Q559.1719,725.7969 559.7813,725.7969 L561.5,725.7969 L561.5,719.1406 L559.7813,719.1406 Q559.1719,719.1406 558.9063,718.9063 Q558.6406,718.6719 558.6406,718.2813 Q558.6406,717.9063 558.9063,717.6719 Q559.1719,717.4375 559.7813,717.4375 L564.9219,717.4375 Q565.5313,717.4375 565.7969,717.6719 Q566.0625,717.9063 566.0625,718.2813 Q566.0625,718.6719 565.7969,718.9063 Q565.5313,719.1406 564.9219,719.1406 L563.2031,719.1406 Z "/>
        <text fill="#000000" font-family="sans-serif" font-size="12" font-style="italic" lengthAdjust="spacingAndGlyphs" textLength="111" x="582.75" y="727.4102">InfoConnectListener</text>
        <line style="stroke: #A80036; stroke-width: 1.5;" x1="518.5" x2="725.5" y1="738.5" y2="738.5"/>
        <line style="stroke: #A80036; stroke-width: 1.5;" x1="518.5" x2="725.5" y1="746.5" y2="746.5"/>
        <ellipse cx="528.5" cy="758.918" fill="#84BE84" rx="3" ry="3" style="stroke: #038048; stroke-width: 1.0;"/>
        <text fill="#000000" font-family="sans-serif" font-size="11" lengthAdjust="spacingAndGlyphs" textLength="183" x="537.5" y="761.9189">void askForConnect(String, String, int)</text>
        <rect fill="#FEFECE" filter="url(#f1)" height="48" style="stroke: #A80036; stroke-width: 1.5;" width="135" x="591.5" y="474"/>
        <ellipse cx="606.5" cy="490" fill="#ADD1B2" rx="11" ry="11" style="stroke: #A80036; stroke-width: 1.0;"/>
        <path d="M609.2656,485.875 Q609.4219,485.6563 609.6094,485.5469 Q609.7969,485.4375 610.0156,485.4375 Q610.3906,485.4375 610.625,485.6953 Q610.8594,485.9531 610.8594,486.5625 L610.8594,488.0156 Q610.8594,488.625 610.625,488.8906 Q610.3906,489.1563 610.0156,489.1563 Q609.6719,489.1563 609.4688,488.9531 Q609.2656,488.7656 609.1563,488.25 Q609.1094,487.8906 608.9219,487.7031 Q608.5938,487.3281 607.9844,487.1094 Q607.375,486.8906 606.75,486.8906 Q605.9844,486.8906 605.3516,487.2188 Q604.7188,487.5469 604.2266,488.2969 Q603.7344,489.0469 603.7344,490.0781 L603.7344,491.1719 Q603.7344,492.4063 604.625,493.2266 Q605.5156,494.0469 607.1094,494.0469 Q608.0469,494.0469 608.7031,493.7969 Q609.0938,493.6406 609.5156,493.2031 Q609.7813,492.9375 609.9297,492.8594 Q610.0781,492.7813 610.2813,492.7813 Q610.6094,492.7813 610.8672,493.0391 Q611.125,493.2969 611.125,493.6406 Q611.125,493.9844 610.7813,494.3906 Q610.2813,494.9688 609.4844,495.2969 Q608.4063,495.75 607.1094,495.75 Q605.5938,495.75 604.3906,495.125 Q603.4063,494.625 602.7188,493.5547 Q602.0313,492.4844 602.0313,491.2031 L602.0313,490.0469 Q602.0313,488.7188 602.6484,487.5703 Q603.2656,486.4219 604.3594,485.8047 Q605.4531,485.1875 606.6875,485.1875 Q607.4219,485.1875 608.0703,485.3516 Q608.7188,485.5156 609.2656,485.875 Z "/>
        <text fill="#000000" font-family="sans-serif" font-size="12" lengthAdjust="spacingAndGlyphs" textLength="103" x="620.5" y="494.9102">ConnexionWindow</text>
        <line style="stroke: #A80036; stroke-width: 1.5;" x1="592.5" x2="725.5" y1="506" y2="506"/>
        <line style="stroke: #A80036; stroke-width: 1.5;" x1="592.5" x2="725.5" y1="514" y2="514"/>
        <rect fill="#FEFECE" filter="url(#f1)" height="103.3438" style="stroke: #A80036; stroke-width: 1.5;" width="157" x="399.5" y="446.5"/>
        <ellipse cx="424.85" cy="462.5" fill="#ADD1B2" rx="11" ry="11" style="stroke: #A80036; stroke-width: 1.0;"/>
        <path d="M427.6156,458.375 Q427.7719,458.1563 427.9594,458.0469 Q428.1469,457.9375 428.3656,457.9375 Q428.7406,457.9375 428.975,458.1953 Q429.2094,458.4531 429.2094,459.0625 L429.2094,460.5156 Q429.2094,461.125 428.975,461.3906 Q428.7406,461.6563 428.3656,461.6563 Q428.0219,461.6563 427.8188,461.4531 Q427.6156,461.2656 427.5063,460.75 Q427.4594,460.3906 427.2719,460.2031 Q426.9438,459.8281 426.3344,459.6094 Q425.725,459.3906 425.1,459.3906 Q424.3344,459.3906 423.7016,459.7188 Q423.0688,460.0469 422.5766,460.7969 Q422.0844,461.5469 422.0844,462.5781 L422.0844,463.6719 Q422.0844,464.9063 422.975,465.7266 Q423.8656,466.5469 425.4594,466.5469 Q426.3969,466.5469 427.0531,466.2969 Q427.4438,466.1406 427.8656,465.7031 Q428.1313,465.4375 428.2797,465.3594 Q428.4281,465.2813 428.6313,465.2813 Q428.9594,465.2813 429.2172,465.5391 Q429.475,465.7969 429.475,466.1406 Q429.475,466.4844 429.1313,466.8906 Q428.6313,467.4688 427.8344,467.7969 Q426.7563,468.25 425.4594,468.25 Q423.9438,468.25 422.7406,467.625 Q421.7563,467.125 421.0688,466.0547 Q420.3813,464.9844 420.3813,463.7031 L420.3813,462.5469 Q420.3813,461.2188 420.9984,460.0703 Q421.6156,458.9219 422.7094,458.3047 Q423.8031,457.6875 425.0375,457.6875 Q425.7719,457.6875 426.4203,457.8516 Q427.0688,458.0156 427.6156,458.375 Z "/>
        <text fill="#000000" font-family="sans-serif" font-size="12" lengthAdjust="spacingAndGlyphs" textLength="102" x="441.15" y="467.4102">ChatClientWindow</text>
        <line style="stroke: #A80036; stroke-width: 1.5;" x1="400.5" x2="555.5" y1="478.5" y2="478.5"/>
        <line style="stroke: #A80036; stroke-width: 1.5;" x1="400.5" x2="555.5" y1="486.5" y2="486.5"/>
        <ellipse cx="410.5" cy="498.918" fill="#84BE84" rx="3" ry="3" style="stroke: #038048; stroke-width: 1.0;"/>
        <text fill="#000000" font-family="sans-serif" font-size="11" lengthAdjust="spacingAndGlyphs" textLength="121" x="419.5" y="501.9189">void addMessage(String)</text>
        <ellipse cx="410.5" cy="512.7539" fill="#84BE84" rx="3" ry="3" style="stroke: #038048; stroke-width: 1.0;"/>
        <text fill="#000000" font-family="sans-serif" font-size="11" lengthAdjust="spacingAndGlyphs" textLength="100" x="419.5" y="515.7549">void addUser(String)</text>
        <ellipse cx="410.5" cy="526.5898" fill="#84BE84" rx="3" ry="3" style="stroke: #038048; stroke-width: 1.0;"/>
        <text fill="#000000" font-family="sans-serif" font-size="11" lengthAdjust="spacingAndGlyphs" textLength="131" x="419.5" y="529.5908">void supprMessage(String)</text>
        <ellipse cx="410.5" cy="540.4258" fill="#84BE84" rx="3" ry="3" style="stroke: #038048; stroke-width: 1.0;"/>
        <text fill="#000000" font-family="sans-serif" font-size="11" lengthAdjust="spacingAndGlyphs" textLength="110" x="419.5" y="543.4268">void supprUser(String)</text>
        <rect fill="#FEFECE" filter="url(#f1)" height="48" style="stroke: #A80036; stroke-width: 1.5;" width="137" x="227.5" y="474"/>
        <ellipse cx="242.5" cy="490" fill="#ADD1B2" rx="11" ry="11" style="stroke: #A80036; stroke-width: 1.0;"/>
        <path d="M245.2656,485.875 Q245.4219,485.6563 245.6094,485.5469 Q245.7969,485.4375 246.0156,485.4375 Q246.3906,485.4375 246.625,485.6953 Q246.8594,485.9531 246.8594,486.5625 L246.8594,488.0156 Q246.8594,488.625 246.625,488.8906 Q246.3906,489.1563 246.0156,489.1563 Q245.6719,489.1563 245.4688,488.9531 Q245.2656,488.7656 245.1563,488.25 Q245.1094,487.8906 244.9219,487.7031 Q244.5938,487.3281 243.9844,487.1094 Q243.375,486.8906 242.75,486.8906 Q241.9844,486.8906 241.3516,487.2188 Q240.7188,487.5469 240.2266,488.2969 Q239.7344,489.0469 239.7344,490.0781 L239.7344,491.1719 Q239.7344,492.4063 240.625,493.2266 Q241.5156,494.0469 243.1094,494.0469 Q244.0469,494.0469 244.7031,493.7969 Q245.0938,493.6406 245.5156,493.2031 Q245.7813,492.9375 245.9297,492.8594 Q246.0781,492.7813 246.2813,492.7813 Q246.6094,492.7813 246.8672,493.0391 Q247.125,493.2969 247.125,493.6406 Q247.125,493.9844 246.7813,494.3906 Q246.2813,494.9688 245.4844,495.2969 Q244.4063,495.75 243.1094,495.75 Q241.5938,495.75 240.3906,495.125 Q239.4063,494.625 238.7188,493.5547 Q238.0313,492.4844 238.0313,491.2031 L238.0313,490.0469 Q238.0313,488.7188 238.6484,487.5703 Q239.2656,486.4219 240.3594,485.8047 Q241.4531,485.1875 242.6875,485.1875 Q243.4219,485.1875 244.0703,485.3516 Q244.7188,485.5156 245.2656,485.875 Z "/>
        <text fill="#000000" font-family="sans-serif" font-size="12" lengthAdjust="spacingAndGlyphs" textLength="105" x="256.5" y="494.9102">ChatAdminWindow</text>
        <line style="stroke: #A80036; stroke-width: 1.5;" x1="228.5" x2="363.5" y1="506" y2="506"/>
        <line style="stroke: #A80036; stroke-width: 1.5;" x1="228.5" x2="363.5" y1="514" y2="514"/>
        <rect fill="#FEFECE" filter="url(#f1)" height="48" style="stroke: #A80036; stroke-width: 1.5;" width="170" x="22" y="474"/>
        <ellipse cx="37" cy="490" fill="#ADD1B2" rx="11" ry="11" style="stroke: #A80036; stroke-width: 1.0;"/>
        <path d="M39.7656,485.875 Q39.9219,485.6563 40.1094,485.5469 Q40.2969,485.4375 40.5156,485.4375 Q40.8906,485.4375 41.125,485.6953 Q41.3594,485.9531 41.3594,486.5625 L41.3594,488.0156 Q41.3594,488.625 41.125,488.8906 Q40.8906,489.1563 40.5156,489.1563 Q40.1719,489.1563 39.9688,488.9531 Q39.7656,488.7656 39.6563,488.25 Q39.6094,487.8906 39.4219,487.7031 Q39.0938,487.3281 38.4844,487.1094 Q37.875,486.8906 37.25,486.8906 Q36.4844,486.8906 35.8516,487.2188 Q35.2188,487.5469 34.7266,488.2969 Q34.2344,489.0469 34.2344,490.0781 L34.2344,491.1719 Q34.2344,492.4063 35.125,493.2266 Q36.0156,494.0469 37.6094,494.0469 Q38.5469,494.0469 39.2031,493.7969 Q39.5938,493.6406 40.0156,493.2031 Q40.2813,492.9375 40.4297,492.8594 Q40.5781,492.7813 40.7813,492.7813 Q41.1094,492.7813 41.3672,493.0391 Q41.625,493.2969 41.625,493.6406 Q41.625,493.9844 41.2813,494.3906 Q40.7813,494.9688 39.9844,495.2969 Q38.9063,495.75 37.6094,495.75 Q36.0938,495.75 34.8906,495.125 Q33.9063,494.625 33.2188,493.5547 Q32.5313,492.4844 32.5313,491.2031 L32.5313,490.0469 Q32.5313,488.7188 33.1484,487.5703 Q33.7656,486.4219 34.8594,485.8047 Q35.9531,485.1875 37.1875,485.1875 Q37.9219,485.1875 38.5703,485.3516 Q39.2188,485.5156 39.7656,485.875 Z "/>
        <text fill="#000000" font-family="sans-serif" font-size="12" lengthAdjust="spacingAndGlyphs" textLength="138" x="51" y="494.9102">ConnexionAdminWindow</text>
        <line style="stroke: #A80036; stroke-width: 1.5;" x1="23" x2="191" y1="506" y2="506"/>
        <line style="stroke: #A80036; stroke-width: 1.5;" x1="23" x2="191" y1="514" y2="514"/>
        <rect fill="#FEFECE" filter="url(#f1)" height="75.6719" style="stroke: #A80036; stroke-width: 1.5;" width="201" x="1454.5" y="57.5"/>
        <ellipse cx="1523.25" cy="73.5" fill="#B4A7E5" rx="11" ry="11" style="stroke: #A80036; stroke-width: 1.0;"/>
        <path d="M1524.2031,70.1406 L1524.2031,76.7969 L1525.9219,76.7969 Q1526.5313,76.7969 1526.7969,77.0313 Q1527.0625,77.2656 1527.0625,77.6563 Q1527.0625,78.0313 1526.7969,78.2656 Q1526.5313,78.5 1525.9219,78.5 L1520.7813,78.5 Q1520.1719,78.5 1519.9063,78.2656 Q1519.6406,78.0313 1519.6406,77.6406 Q1519.6406,77.2656 1519.9063,77.0313 Q1520.1719,76.7969 1520.7813,76.7969 L1522.5,76.7969 L1522.5,70.1406 L1520.7813,70.1406 Q1520.1719,70.1406 1519.9063,69.9063 Q1519.6406,69.6719 1519.6406,69.2813 Q1519.6406,68.9063 1519.9063,68.6719 Q1520.1719,68.4375 1520.7813,68.4375 L1525.9219,68.4375 Q1526.5313,68.4375 1526.7969,68.6719 Q1527.0625,68.9063 1527.0625,69.2813 Q1527.0625,69.6719 1526.7969,69.9063 Q1526.5313,70.1406 1525.9219,70.1406 L1524.2031,70.1406 Z "/>
        <text fill="#000000" font-family="sans-serif" font-size="12" font-style="italic" lengthAdjust="spacingAndGlyphs" textLength="55" x="1543.75" y="78.4102">IDataPool</text>
        <line style="stroke: #A80036; stroke-width: 1.5;" x1="1455.5" x2="1654.5" y1="89.5" y2="89.5"/>
        <line style="stroke: #A80036; stroke-width: 1.5;" x1="1455.5" x2="1654.5" y1="97.5" y2="97.5"/>
        <ellipse cx="1465.5" cy="109.918" fill="#84BE84" rx="3" ry="3" style="stroke: #038048; stroke-width: 1.0;"/>
        <text fill="#000000" font-family="sans-serif" font-size="11" lengthAdjust="spacingAndGlyphs" textLength="154" x="1474.5" y="112.9189">ArrayList&lt;String&gt; getUserPool()</text>
        <ellipse cx="1465.5" cy="123.7539" fill="#84BE84" rx="3" ry="3" style="stroke: #038048; stroke-width: 1.0;"/>
        <text fill="#000000" font-family="sans-serif" font-size="11" lengthAdjust="spacingAndGlyphs" textLength="175" x="1474.5" y="126.7549">ArrayList&lt;String&gt; getMessagePool()</text>
        <rect fill="#FEFECE" filter="url(#f1)" height="103.3438" style="stroke: #A80036; stroke-width: 1.5;" width="197" x="1457.5" y="207"/>
        <ellipse cx="1534.25" cy="223" fill="#ADD1B2" rx="11" ry="11" style="stroke: #A80036; stroke-width: 1.0;"/>
        <path d="M1537.0156,218.875 Q1537.1719,218.6563 1537.3594,218.5469 Q1537.5469,218.4375 1537.7656,218.4375 Q1538.1406,218.4375 1538.375,218.6953 Q1538.6094,218.9531 1538.6094,219.5625 L1538.6094,221.0156 Q1538.6094,221.625 1538.375,221.8906 Q1538.1406,222.1563 1537.7656,222.1563 Q1537.4219,222.1563 1537.2188,221.9531 Q1537.0156,221.7656 1536.9063,221.25 Q1536.8594,220.8906 1536.6719,220.7031 Q1536.3438,220.3281 1535.7344,220.1094 Q1535.125,219.8906 1534.5,219.8906 Q1533.7344,219.8906 1533.1016,220.2188 Q1532.4688,220.5469 1531.9766,221.2969 Q1531.4844,222.0469 1531.4844,223.0781 L1531.4844,224.1719 Q1531.4844,225.4063 1532.375,226.2266 Q1533.2656,227.0469 1534.8594,227.0469 Q1535.7969,227.0469 1536.4531,226.7969 Q1536.8438,226.6406 1537.2656,226.2031 Q1537.5313,225.9375 1537.6797,225.8594 Q1537.8281,225.7813 1538.0313,225.7813 Q1538.3594,225.7813 1538.6172,226.0391 Q1538.875,226.2969 1538.875,226.6406 Q1538.875,226.9844 1538.5313,227.3906 Q1538.0313,227.9688 1537.2344,228.2969 Q1536.1563,228.75 1534.8594,228.75 Q1533.3438,228.75 1532.1406,228.125 Q1531.1563,227.625 1530.4688,226.5547 Q1529.7813,225.4844 1529.7813,224.2031 L1529.7813,223.0469 Q1529.7813,221.7188 1530.3984,220.5703 Q1531.0156,219.4219 1532.1094,218.8047 Q1533.2031,218.1875 1534.4375,218.1875 Q1535.1719,218.1875 1535.8203,218.3516 Q1536.4688,218.5156 1537.0156,218.875 Z "/>
        <text fill="#000000" font-family="sans-serif" font-size="12" lengthAdjust="spacingAndGlyphs" textLength="35" x="1554.75" y="227.9102">Server</text>
        <line style="stroke: #A80036; stroke-width: 1.5;" x1="1458.5" x2="1653.5" y1="239" y2="239"/>
        <rect fill="none" height="6" style="stroke: #C82930; stroke-width: 1.0;" width="6" x="1465.5" y="248.418"/>
        <text fill="#000000" font-family="sans-serif" font-size="11" lengthAdjust="spacingAndGlyphs" textLength="171" x="1477.5" y="254.4189">m_conversation : ArrayList&lt;String&gt;</text>
        <rect fill="none" height="6" style="stroke: #C82930; stroke-width: 1.0;" width="6" x="1465.5" y="262.2539"/>
        <text fill="#000000" font-family="sans-serif" font-size="11" lengthAdjust="spacingAndGlyphs" textLength="147" x="1477.5" y="268.2549">m_userList : ArrayList&lt;String&gt;</text>
        <rect fill="none" height="6" style="stroke: #C82930; stroke-width: 1.0;" width="6" x="1465.5" y="276.0898"/>
        <text fill="#000000" font-family="sans-serif" font-size="11" lengthAdjust="spacingAndGlyphs" textLength="153" x="1477.5" y="282.0908">m_adminList : ArrayList&lt;String&gt;</text>
        <line style="stroke: #A80036; stroke-width: 1.5;" x1="1458.5" x2="1653.5" y1="288.5078" y2="288.5078"/>
        <rect fill="#F24D5C" height="6" style="stroke: #C82930; stroke-width: 1.0;" width="6" x="1465.5" y="297.9258"/>
        <text fill="#000000" font-family="sans-serif" font-size="11" lengthAdjust="spacingAndGlyphs" textLength="99" x="1477.5" y="303.9268">void interpret(String)</text>
        <rect fill="#FEFECE" filter="url(#f1)" height="117.1797" style="stroke: #A80036; stroke-width: 1.5;" width="133" x="1454.5" y="439.5"/>
        <ellipse cx="1480.75" cy="455.5" fill="#ADD1B2" rx="11" ry="11" style="stroke: #A80036; stroke-width: 1.0;"/>
        <path d="M1483.5156,451.375 Q1483.6719,451.1563 1483.8594,451.0469 Q1484.0469,450.9375 1484.2656,450.9375 Q1484.6406,450.9375 1484.875,451.1953 Q1485.1094,451.4531 1485.1094,452.0625 L1485.1094,453.5156 Q1485.1094,454.125 1484.875,454.3906 Q1484.6406,454.6563 1484.2656,454.6563 Q1483.9219,454.6563 1483.7188,454.4531 Q1483.5156,454.2656 1483.4063,453.75 Q1483.3594,453.3906 1483.1719,453.2031 Q1482.8438,452.8281 1482.2344,452.6094 Q1481.625,452.3906 1481,452.3906 Q1480.2344,452.3906 1479.6016,452.7188 Q1478.9688,453.0469 1478.4766,453.7969 Q1477.9844,454.5469 1477.9844,455.5781 L1477.9844,456.6719 Q1477.9844,457.9063 1478.875,458.7266 Q1479.7656,459.5469 1481.3594,459.5469 Q1482.2969,459.5469 1482.9531,459.2969 Q1483.3438,459.1406 1483.7656,458.7031 Q1484.0313,458.4375 1484.1797,458.3594 Q1484.3281,458.2813 1484.5313,458.2813 Q1484.8594,458.2813 1485.1172,458.5391 Q1485.375,458.7969 1485.375,459.1406 Q1485.375,459.4844 1485.0313,459.8906 Q1484.5313,460.4688 1483.7344,460.7969 Q1482.6563,461.25 1481.3594,461.25 Q1479.8438,461.25 1478.6406,460.625 Q1477.6563,460.125 1476.9688,459.0547 Q1476.2813,457.9844 1476.2813,456.7031 L1476.2813,455.5469 Q1476.2813,454.2188 1476.8984,453.0703 Q1477.5156,451.9219 1478.6094,451.3047 Q1479.7031,450.6875 1480.9375,450.6875 Q1481.6719,450.6875 1482.3203,450.8516 Q1482.9688,451.0156 1483.5156,451.375 Z "/>
        <text fill="#000000" font-family="sans-serif" font-size="12" lengthAdjust="spacingAndGlyphs" textLength="76" x="1497.25" y="460.4102">ClientHandler</text>
        <line style="stroke: #A80036; stroke-width: 1.5;" x1="1455.5" x2="1586.5" y1="471.5" y2="471.5"/>
        <rect fill="none" height="6" style="stroke: #C82930; stroke-width: 1.0;" width="6" x="1462.5" y="480.918"/>
        <text fill="#000000" font-family="sans-serif" font-size="11" lengthAdjust="spacingAndGlyphs" textLength="79" x="1474.5" y="486.9189">m_sock : Socket</text>
        <rect fill="none" height="6" style="stroke: #C82930; stroke-width: 1.0;" width="6" x="1462.5" y="494.7539"/>
        <text fill="#000000" font-family="sans-serif" font-size="11" lengthAdjust="spacingAndGlyphs" textLength="107" x="1474.5" y="500.7549">m_pseudonym : String</text>
        <rect fill="none" height="6" style="stroke: #C82930; stroke-width: 1.0;" width="6" x="1462.5" y="508.5898"/>
        <text fill="#000000" font-family="sans-serif" font-size="11" lengthAdjust="spacingAndGlyphs" textLength="99" x="1474.5" y="514.5908">m_isAdmin : boolean</text>
        <line style="stroke: #A80036; stroke-width: 1.5;" x1="1455.5" x2="1586.5" y1="521.0078" y2="521.0078"/>
        <rect fill="#F24D5C" height="6" style="stroke: #C82930; stroke-width: 1.0;" width="6" x="1462.5" y="530.4258"/>
        <text fill="#000000" font-family="sans-serif" font-size="11" lengthAdjust="spacingAndGlyphs" textLength="99" x="1474.5" y="536.4268">void interpret(String)</text>
        <ellipse cx="1465.5" cy="547.2617" fill="#84BE84" rx="3" ry="3" style="stroke: #038048; stroke-width: 1.0;"/>
        <text fill="#000000" font-family="sans-serif" font-size="11" lengthAdjust="spacingAndGlyphs" textLength="80" x="1474.5" y="550.2627">void post(String)</text>
        <rect fill="#FEFECE" filter="url(#f1)" height="48" style="stroke: #A80036; stroke-width: 1.5;" width="86" x="1265" y="234.5"/>
        <ellipse cx="1280" cy="250.5" fill="#ADD1B2" rx="11" ry="11" style="stroke: #A80036; stroke-width: 1.0;"/>
        <path d="M1282.7656,246.375 Q1282.9219,246.1563 1283.1094,246.0469 Q1283.2969,245.9375 1283.5156,245.9375 Q1283.8906,245.9375 1284.125,246.1953 Q1284.3594,246.4531 1284.3594,247.0625 L1284.3594,248.5156 Q1284.3594,249.125 1284.125,249.3906 Q1283.8906,249.6563 1283.5156,249.6563 Q1283.1719,249.6563 1282.9688,249.4531 Q1282.7656,249.2656 1282.6563,248.75 Q1282.6094,248.3906 1282.4219,248.2031 Q1282.0938,247.8281 1281.4844,247.6094 Q1280.875,247.3906 1280.25,247.3906 Q1279.4844,247.3906 1278.8516,247.7188 Q1278.2188,248.0469 1277.7266,248.7969 Q1277.2344,249.5469 1277.2344,250.5781 L1277.2344,251.6719 Q1277.2344,252.9063 1278.125,253.7266 Q1279.0156,254.5469 1280.6094,254.5469 Q1281.5469,254.5469 1282.2031,254.2969 Q1282.5938,254.1406 1283.0156,253.7031 Q1283.2813,253.4375 1283.4297,253.3594 Q1283.5781,253.2813 1283.7813,253.2813 Q1284.1094,253.2813 1284.3672,253.5391 Q1284.625,253.7969 1284.625,254.1406 Q1284.625,254.4844 1284.2813,254.8906 Q1283.7813,255.4688 1282.9844,255.7969 Q1281.9063,256.25 1280.6094,256.25 Q1279.0938,256.25 1277.8906,255.625 Q1276.9063,255.125 1276.2188,254.0547 Q1275.5313,252.9844 1275.5313,251.7031 L1275.5313,250.5469 Q1275.5313,249.2188 1276.1484,248.0703 Q1276.7656,246.9219 1277.8594,246.3047 Q1278.9531,245.6875 1280.1875,245.6875 Q1280.9219,245.6875 1281.5703,245.8516 Q1282.2188,246.0156 1282.7656,246.375 Z "/>
        <text fill="#000000" font-family="sans-serif" font-size="12" lengthAdjust="spacingAndGlyphs" textLength="54" x="1294" y="255.4102">Runnable</text>
        <line style="stroke: #A80036; stroke-width: 1.5;" x1="1266" x2="1350" y1="266.5" y2="266.5"/>
        <line style="stroke: #A80036; stroke-width: 1.5;" x1="1266" x2="1350" y1="274.5" y2="274.5"/>
        <path d="M927.084,151.106 C915.86,169.175 903.427,189.193 892.401,206.945 " fill="none" style="stroke: #A80036; stroke-width: 1.0;"/>
        <polygon fill="none" points="921.308,147.137,937.807,133.841,933.2,154.524,921.308,147.137" style="stroke: #A80036; stroke-width: 1.0;"/>
        <path d="M1088.86,136.023 C1048.72,157.422 998.701,184.09 955.758,206.983 " fill="none" style="stroke: #A80036; stroke-width: 1.0;"/>
        <polygon fill="none" points="1085.61,129.826,1106.55,126.594,1092.19,142.18,1085.61,129.826" style="stroke: #A80036; stroke-width: 1.0;"/>
        <path d="M501.708,686.704 C610.688,654.282 669.176,707.5556 744,634 C829.878,549.578 763.925,483.203 805,370 C812.336,349.783 822.485,328.499 832.131,310.067 " fill="none" style="stroke: #A80036; stroke-width: 1.0;"/>
        <polygon fill="none" points="503.839,693.373,482.651,693.092,499.389,680.099,503.839,693.373" style="stroke: #A80036; stroke-width: 1.0;"/>
        <path d="M732.603,697.409 C761.716,681.983 790.203,661.259 809,634 C876.912,535.514 874.484,387.45 867.448,310.314 " fill="none" style="stroke: #A80036; stroke-width: 1.0;"/>
        <polygon fill="none" points="735.511,703.78,714.477,706.3415,729.323,691.222,735.511,703.78" style="stroke: #A80036; stroke-width: 1.0;"/>
        <path d="M1278.29,298.916 C1263.36,318.731 1244.33,343.978 1224.9,369.762 " fill="none" style="stroke: #A80036; stroke-width: 1.0;"/>
        <polygon fill="none" points="1272.88,294.463,1290.51,282.705,1284.06,302.89,1272.88,294.463" style="stroke: #A80036; stroke-width: 1.0;"/>
        <path d="M928.11,318.973 C952.765,340.822 981.483,366.271 1009.36,390.977 " fill="none" style="stroke: #A80036; stroke-width: 1.0;"/>
        <polygon fill="#A80036" points="918.164,310.158,920.002,317.1309,927.1455,318.1162,925.3075,311.1433,918.164,310.158" style="stroke: #A80036; stroke-width: 1.0;"/>
        <text fill="#000000" font-family="sans-serif" font-size="13" lengthAdjust="spacingAndGlyphs" textLength="7" x="918.3751" y="331.6702">1</text>
        <path d="M785.25,319.121 C767.726,334.702 749.875,352.161 735,370 C707.519,402.956 683.55,446.96 670.206,473.573 " fill="none" style="stroke: #A80036; stroke-width: 1.0;"/>
        <polygon fill="#A80036" points="795.505,310.176,788.3541,311.1056,786.4618,318.064,793.6128,317.1344,795.505,310.176" style="stroke: #A80036; stroke-width: 1.0;"/>
        <text fill="#000000" font-family="sans-serif" font-size="13" lengthAdjust="spacingAndGlyphs" textLength="7" x="779.2338" y="331.6906">1</text>
        <path d="M738.757,290.034 C684.719,307.519 622.568,333.42 574,370 C546.844,390.453 523.622,420.57 506.822,446.342 " fill="none" style="stroke: #A80036; stroke-width: 1.0;"/>
        <polygon fill="#A80036" points="751.227,286.1,744.3015,284.0907,739.7831,289.7107,746.7086,291.72,751.227,286.1" style="stroke: #A80036; stroke-width: 1.0;"/>
        <text fill="#000000" font-family="sans-serif" font-size="13" lengthAdjust="spacingAndGlyphs" textLength="7" x="736.6165" y="284.9123">1</text>
        <path d="M738.188,269.964 C575.138,285.605 297.578,318.833 210,370 C167.35,394.918 135.094,444.634 118.806,473.927 " fill="none" style="stroke: #A80036; stroke-width: 1.0;"/>
        <polygon fill="#A80036" points="751.176,268.732,744.8252,265.3163,739.2296,269.8648,745.5804,273.2805,751.176,268.732" style="stroke: #A80036; stroke-width: 1.0;"/>
        <text fill="#000000" font-family="sans-serif" font-size="13" lengthAdjust="spacingAndGlyphs" textLength="7" x="736.562" y="266.3773">1</text>
        <path d="M738.093,263.309 C634.974,271.914 487.968,297.326 382,370 C344.009,396.055 318.091,444.893 305.278,473.823 " fill="none" style="stroke: #A80036; stroke-width: 1.0;"/>
        <polygon fill="#A80036" points="751.076,262.295,744.7826,258.7746,739.1125,263.23,745.4059,266.7503,751.076,262.295" style="stroke: #A80036; stroke-width: 1.0;"/>
        <text fill="#000000" font-family="sans-serif" font-size="13" lengthAdjust="spacingAndGlyphs" textLength="7" x="736.4553" y="259.5079">1</text>
        <path d="M1140.94,356.399 C1147.99,273.266 1156.33,175.039 1160.44,126.603 " fill="none" style="stroke: #A80036; stroke-width: 1.0;"/>
        <polygon fill="#A80036" points="1139.82,369.602,1144.3132,363.9619,1140.8351,357.645,1136.3419,363.2851,1139.82,369.602" style="stroke: #A80036; stroke-width: 1.0;"/>
        <text fill="#000000" font-family="sans-serif" font-size="13" lengthAdjust="spacingAndGlyphs" textLength="7" x="1133.2432" y="359.2351">1</text>
        <text fill="#000000" font-family="sans-serif" font-size="13" lengthAdjust="spacingAndGlyphs" textLength="7" x="1152.2469" y="147.8473">n</text>
        <path d="M458.869,562.105 C447.13,600.828 432.298,649.752 421.334,685.919 " fill="none" style="stroke: #A80036; stroke-width: 1.0;"/>
        <polygon fill="#A80036" points="462.643,549.658,457.0743,554.2394,459.1614,561.1418,464.7302,556.5604,462.643,549.658" style="stroke: #A80036; stroke-width: 1.0;"/>
        <text fill="#000000" font-family="sans-serif" font-size="13" lengthAdjust="spacingAndGlyphs" textLength="7" x="453.1091" y="571.1702">1</text>
        <text fill="#000000" font-family="sans-serif" font-size="13" lengthAdjust="spacingAndGlyphs" textLength="7" x="415.9982" y="675.0361">n</text>
        <path d="M653.348,535.277 C646.065,582.031 633.531,662.486 626.727,706.1585 " fill="none" style="stroke: #A80036; stroke-width: 1.0;"/>
        <polygon fill="#A80036" points="655.385,522.205,650.5095,527.5181,653.5387,534.0621,658.4142,528.749,655.385,522.205" style="stroke: #A80036; stroke-width: 1.0;"/>
        <text fill="#000000" font-family="sans-serif" font-size="13" lengthAdjust="spacingAndGlyphs" textLength="7" x="646.6507" y="543.5929">1</text>
        <text fill="#000000" font-family="sans-serif" font-size="13" lengthAdjust="spacingAndGlyphs" textLength="7" x="619.9801" y="695.592">n</text>
        <path d="M1555.36,153.944 C1555.46,171.254 1555.58,190.118 1555.69,206.945 " fill="none" style="stroke: #A80036; stroke-width: 1.0;"/>
        <polygon fill="none" points="1548.36,153.884,1555.23,133.841,1562.36,153.797,1548.36,153.884" style="stroke: #A80036; stroke-width: 1.0;"/>
        <path d="M1255.07,134.217 C1315.8,159.096 1395.28,191.66 1457.32,217.072 " fill="none" style="stroke: #A80036; stroke-width: 1.0;"/>
        <polygon fill="none" points="1252.31,140.653,1236.46,126.594,1257.62,127.698,1252.31,140.653" style="stroke: #A80036; stroke-width: 1.0;"/>
        <path d="M1546.63,323.052 C1541.3,359.221 1534.68,404.177 1529.5,439.324 " fill="none" style="stroke: #A80036; stroke-width: 1.0;"/>
        <polygon fill="#A80036" points="1548.53,310.158,1543.6976,315.5104,1546.7796,322.0296,1551.612,316.6773,1548.53,310.158" style="stroke: #A80036; stroke-width: 1.0;"/>
        <text fill="#000000" font-family="sans-serif" font-size="13" lengthAdjust="spacingAndGlyphs" textLength="7" x="1540.0559" y="331.6702">1</text>
        <text fill="#000000" font-family="sans-serif" font-size="13" lengthAdjust="spacingAndGlyphs" textLength="7" x="1523.1094" y="428.7035">n</text>
        <path d="M1342.25,297.688 C1376.52,335.904 1429.69,395.185 1469.14,439.171 " fill="none" style="stroke: #A80036; stroke-width: 1.0;"/>
        <polygon fill="none" points="1336.95,302.268,1328.81,282.705,1347.38,292.921,1336.95,302.268" style="stroke: #A80036; stroke-width: 1.0;"/>
        <path d="M1489.9,427.127 C1455.72,352.543 1401.26,240.559 1368,207 C1333.13,171.823 1284.7,145.009 1243.66,126.61 " fill="none" style="stroke: #A80036; stroke-width: 1.0;"/>
        <polygon fill="#A80036" points="1495.42,439.216,1496.5698,432.0972,1490.4409,428.2978,1489.291,435.4166,1495.42,439.216" style="stroke: #A80036; stroke-width: 1.0;"/>
        <text fill="#000000" font-family="sans-serif" font-size="13" lengthAdjust="spacingAndGlyphs" textLength="7" x="1484.8759" y="428.5823">1</text>
        <text fill="#000000" font-family="sans-serif" font-size="13" lengthAdjust="spacingAndGlyphs" textLength="7" x="1251.8509" y="147.8557">n</text>
    </g>
</svg>
