<?xml version="1.0" encoding="UTF-8"?><svg xmlns="http://www.w3.org/2000/svg" xmlns:xlink="http://www.w3.org/1999/xlink" height="511pt" style="width:882px;height:511px;" version="1.1" viewBox="0 0 882 511" width="882pt">
    <defs>
        <filter height="300%" id="f1" width="300%" x="-1" y="-1">
            <feGaussianBlur result="blurOut" stdDeviation="2.0"/>
            <feColorMatrix in="blurOut" result="blurOut2" type="matrix" values="0 0 0 0 0 0 0 0 0 0 0 0 0 0 0 0 0 0 .4 0"/>
            <feOffset dx="4.0" dy="4.0" in="blurOut2" result="blurOut3"/>
            <feBlend in="SourceGraphic" in2="blurOut3" mode="normal"/>
        </filter>
    </defs>
    <g>
        <text fill="#000000" font-family="sans-serif" font-size="14" font-weight="bold" lengthAdjust="spacingAndGlyphs" textLength="167" x="362" y="24.5332">UML Diagram Sequence</text>
        <text fill="#000000" font-family="sans-serif" font-size="14" font-weight="bold" lengthAdjust="spacingAndGlyphs" textLength="151" x="370" y="42.1426">User send a message</text>
        <line style="stroke: #A80036; stroke-width: 1.0; stroke-dasharray: 5.0,5.0;" x1="25" x2="25" y1="136.8281" y2="425.6406"/>
        <line style="stroke: #A80036; stroke-width: 1.0; stroke-dasharray: 5.0,5.0;" x1="247.5" x2="247.5" y1="136.8281" y2="425.6406"/>
        <line style="stroke: #A80036; stroke-width: 1.0; stroke-dasharray: 5.0,5.0;" x1="497" x2="497" y1="136.8281" y2="425.6406"/>
        <text fill="#000000" font-family="sans-serif" font-size="14" lengthAdjust="spacingAndGlyphs" textLength="28" x="8" y="133.752">user</text>
        <ellipse cx="25" cy="62.2188" fill="#FEFECE" filter="url(#f1)" rx="8" ry="8" style="stroke: #A80036; stroke-width: 2.0;"/>
        <path d="M25,70.2188 L25,97.2188 M12,78.2188 L38,78.2188 M25,97.2188 L12,112.2188 M25,97.2188 L38,112.2188 " fill="#FEFECE" filter="url(#f1)" style="stroke: #A80036; stroke-width: 2.0;"/>
        <text fill="#000000" font-family="sans-serif" font-size="14" lengthAdjust="spacingAndGlyphs" textLength="28" x="8" y="439.1738">user</text>
        <ellipse cx="25" cy="452.25" fill="#FEFECE" filter="url(#f1)" rx="8" ry="8" style="stroke: #A80036; stroke-width: 2.0;"/>
        <path d="M25,460.25 L25,487.25 M12,468.25 L38,468.25 M25,487.25 L12,502.25 M25,487.25 L38,502.25 " fill="#FEFECE" filter="url(#f1)" style="stroke: #A80036; stroke-width: 2.0;"/>
        <text fill="#000000" font-family="sans-serif" font-size="14" lengthAdjust="spacingAndGlyphs" textLength="33" x="228.5" y="133.752">client</text>
        <ellipse cx="248" cy="103.2188" fill="#FEFECE" filter="url(#f1)" rx="12" ry="12" style="stroke: #A80036; stroke-width: 2.0;"/>
        <line style="stroke: #A80036; stroke-width: 2.0;" x1="236" x2="260" y1="117.2188" y2="117.2188"/>
        <text fill="#000000" font-family="sans-serif" font-size="14" lengthAdjust="spacingAndGlyphs" textLength="33" x="228.5" y="439.1738">client</text>
        <ellipse cx="248" cy="458.25" fill="#FEFECE" filter="url(#f1)" rx="12" ry="12" style="stroke: #A80036; stroke-width: 2.0;"/>
        <line style="stroke: #A80036; stroke-width: 2.0;" x1="236" x2="260" y1="472.25" y2="472.25"/>
        <text fill="#000000" font-family="sans-serif" font-size="14" lengthAdjust="spacingAndGlyphs" textLength="40" x="474" y="133.752">server</text>
        <ellipse cx="497" cy="103.2188" fill="#FEFECE" filter="url(#f1)" rx="12" ry="12" style="stroke: #A80036; stroke-width: 2.0;"/>
        <line style="stroke: #A80036; stroke-width: 2.0;" x1="485" x2="509" y1="117.2188" y2="117.2188"/>
        <text fill="#000000" font-family="sans-serif" font-size="14" lengthAdjust="spacingAndGlyphs" textLength="40" x="474" y="439.1738">server</text>
        <ellipse cx="497" cy="458.25" fill="#FEFECE" filter="url(#f1)" rx="12" ry="12" style="stroke: #A80036; stroke-width: 2.0;"/>
        <line style="stroke: #A80036; stroke-width: 2.0;" x1="485" x2="509" y1="472.25" y2="472.25"/>
        <polygon fill="#A80036" points="236,164.8281,246,168.8281,236,172.8281,240,168.8281" style="stroke: #A80036; stroke-width: 1.0;"/>
        <line style="stroke: #A80036; stroke-width: 1.0;" x1="25" x2="242" y1="168.8281" y2="168.8281"/>
        <text fill="#000000" font-family="sans-serif" font-size="13" lengthAdjust="spacingAndGlyphs" textLength="90" x="32" y="164.3232">choose receiver</text>
        <polygon fill="#A80036" points="236,195.1797,246,199.1797,236,203.1797,240,199.1797" style="stroke: #A80036; stroke-width: 1.0;"/>
        <line style="stroke: #A80036; stroke-width: 1.0;" x1="25" x2="242" y1="199.1797" y2="199.1797"/>
        <text fill="#000000" font-family="sans-serif" font-size="13" lengthAdjust="spacingAndGlyphs" textLength="82" x="32" y="194.6748">type message</text>
        <polygon fill="#A80036" points="236,225.5313,246,229.5313,236,233.5313,240,229.5313" style="stroke: #A80036; stroke-width: 1.0;"/>
        <line style="stroke: #A80036; stroke-width: 1.0;" x1="25" x2="242" y1="229.5313" y2="229.5313"/>
        <text fill="#000000" font-family="sans-serif" font-size="13" lengthAdjust="spacingAndGlyphs" textLength="65" x="32" y="225.0264">press enter</text>
        <line style="stroke: #A80036; stroke-width: 1.0;" x1="248" x2="290" y1="260.2344" y2="260.2344"/>
        <line style="stroke: #A80036; stroke-width: 1.0;" x1="290" x2="290" y1="260.2344" y2="273.2344"/>
        <line style="stroke: #A80036; stroke-width: 1.0;" x1="249" x2="290" y1="273.2344" y2="273.2344"/>
        <polygon fill="#A80036" points="259,269.2344,249,273.2344,259,277.2344,255,273.2344" style="stroke: #A80036; stroke-width: 1.0;"/>
        <text fill="#000000" font-family="sans-serif" font-size="13" lengthAdjust="spacingAndGlyphs" textLength="86" x="255" y="255.3779">verify message</text>
        <polygon fill="#A80036" points="485,299.2344,495,303.2344,485,307.2344,489,303.2344" style="stroke: #A80036; stroke-width: 1.0;"/>
        <line style="stroke: #A80036; stroke-width: 1.0;" x1="248" x2="491" y1="303.2344" y2="303.2344"/>
        <text fill="#000000" font-family="sans-serif" font-size="13" lengthAdjust="spacingAndGlyphs" textLength="225" x="255" y="298.7295">send message via customized protocol</text>
        <line style="stroke: #A80036; stroke-width: 1.0;" x1="497" x2="539" y1="333.9375" y2="333.9375"/>
        <line style="stroke: #A80036; stroke-width: 1.0;" x1="539" x2="539" y1="333.9375" y2="346.9375"/>
        <line style="stroke: #A80036; stroke-width: 1.0;" x1="498" x2="539" y1="346.9375" y2="346.9375"/>
        <polygon fill="#A80036" points="508,342.9375,498,346.9375,508,350.9375,504,346.9375" style="stroke: #A80036; stroke-width: 1.0;"/>
        <text fill="#000000" font-family="sans-serif" font-size="13" lengthAdjust="spacingAndGlyphs" textLength="377" x="504" y="329.0811">verify message and distribute it to targeted communication thread</text>
        <polygon fill="#A80036" points="259,372.9375,249,376.9375,259,380.9375,255,376.9375" style="stroke: #A80036; stroke-width: 1.0;"/>
        <line style="stroke: #A80036; stroke-width: 1.0;" x1="253" x2="496" y1="376.9375" y2="376.9375"/>
        <text fill="#000000" font-family="sans-serif" font-size="13" lengthAdjust="spacingAndGlyphs" textLength="225" x="265" y="372.4326">send message via customized protocol</text>
        <polygon fill="#A80036" points="36,403.2891,26,407.2891,36,411.2891,32,407.2891" style="stroke: #A80036; stroke-width: 1.0;"/>
        <line style="stroke: #A80036; stroke-width: 1.0;" x1="30" x2="247" y1="407.2891" y2="407.2891"/>
        <text fill="#000000" font-family="sans-serif" font-size="13" lengthAdjust="spacingAndGlyphs" textLength="199" x="42" y="402.7842">print message in conversation field</text>
    </g>
</svg>
